<!DOCTYPE svg PUBLIC "-//W3C//DTD SVG 1.1//EN" "http://www.w3.org/Graphics/SVG/1.1/DTD/svg11.dtd">

<!-- Uploaded to: SVG Repo, www.svgrepo.com, Transformed by: SVG Repo Mixer Tools -->
<svg width="256px" height="256px" viewBox="0 0 24 24" fill="none" xmlns="http://www.w3.org/2000/svg">

<g id="SVGRepo_bgCarrier" stroke-width="0"/>

<g id="SVGRepo_tracerCarrier" stroke-linecap="round" stroke-linejoin="round"/>

<g id="SVGRepo_iconCarrier"> <path d="M12 12C14.7614 12 17 9.76142 17 7C17 4.23858 14.7614 2 12 2C9.23858 2 7 4.23858 7 7C7 9.76142 9.23858 12 12 12Z" stroke="#FFFFFF" stroke-width="0.8" stroke-linecap="round" stroke-linejoin="round"/> <path d="M3.41003 22C3.41003 18.13 7.26003 15 12 15C12.96 15 13.89 15.13 14.76 15.37" stroke="#FFFFFF" stroke-width="0.8" stroke-linecap="round" stroke-linejoin="round"/> <path d="M22 18C22 18.75 21.79 19.46 21.42 20.06C21.21 20.42 20.94 20.74 20.63 21C19.93 21.63 19.01 22 18 22C16.54 22 15.27 21.22 14.58 20.06C14.21 19.46 14 18.75 14 18C14 16.74 14.58 15.61 15.5 14.88C16.19 14.33 17.06 14 18 14C20.21 14 22 15.79 22 18Z" stroke="#FFFFFF" stroke-width="0.8" stroke-miterlimit="10" stroke-linecap="round" stroke-linejoin="round"/> <path d="M16.4399 18L17.4299 18.99L19.5599 17.02" stroke="#FFFFFF" stroke-width="0.6" stroke-linecap="round" stroke-linejoin="round"/> </g>

</svg>
